HIERARCHY
ROOT hip
{
	OFFSET 0.000000 0.000000 0.000000 
	CHANNELS 6 Xposition Yposition Zposition Xrotation Zrotation Yrotation
	JOINT abdomen
	{
		OFFSET 0.000000 3.402643 0.000000 
		CHANNELS 3 Xrotation Zrotation Yrotation
		JOINT chest
		{
			OFFSET 0.000000 8.438565 -0.680529 
			CHANNELS 3 Xrotation Zrotation Yrotation
			JOINT neck
			{
				OFFSET 0.000000 10.207942 -0.272212 
				CHANNELS 3 Xrotation Zrotation Yrotation
				JOINT head
				{
					OFFSET 0.000000 3.130431 0.000000 
					CHANNELS 3 Xrotation Zrotation Yrotation
					End Site
					{
						OFFSET 0.000000 3.130435 0.000000 
					}
				}
			}
			JOINT lCollar
			{
				OFFSET 3.470700 6.669187 -0.816635 
				CHANNELS 3 Yrotation Zrotation Xrotation
				JOINT lShldr
				{
					OFFSET 3.198488 0.000000 0.000000 
					CHANNELS 3 Zrotation Yrotation Xrotation
					JOINT lForeArm
					{
						OFFSET 10.139888 0.000000 0.000000 
						CHANNELS 3 Yrotation Zrotation Xrotation
						JOINT lHand
						{
							OFFSET 8.370511 0.000000 0.000000 
							CHANNELS 3 Zrotation Yrotation Xrotation
							End Site
							{
								OFFSET 4.083176 0.000000 0.000000 
							}
						}
					}
				}
			}
			JOINT rCollar
			{
				OFFSET -3.470700 6.669187 -0.816635 
				CHANNELS 3 Yrotation Zrotation Xrotation
				JOINT rShldr
				{
					OFFSET -3.198488 0.000000 0.000000 
					CHANNELS 3 Zrotation Yrotation Xrotation
					JOINT rForeArm
					{
						OFFSET -10.139888 0.000000 0.000000 
						CHANNELS 3 Yrotation Zrotation Xrotation
						JOINT rHand
						{
							OFFSET -8.370511 0.000000 0.000000 
							CHANNELS 3 Zrotation Yrotation Xrotation
							End Site
							{
								OFFSET -4.083176 0.000000 0.000000 
							}
						}
					}
				}
			}
		}
	}
	JOINT lThigh
	{
		OFFSET 5.308129 -1.633274 1.361059 
		CHANNELS 3 Xrotation Zrotation Yrotation
		JOINT lShin
		{
			OFFSET -2.041588 -20.007561 0.000000 
			CHANNELS 3 Xrotation Zrotation Yrotation
			JOINT lFoot
			{
				OFFSET 0.000000 -19.190928 -1.224953 
				CHANNELS 3 Xrotation Yrotation Zrotation
				End Site
				{
					OFFSET 0.000000 -2.449906 4.627600 
				}
			}
		}
	}
	JOINT rThigh
	{
		OFFSET -5.308129 -1.633274 1.361059 
		CHANNELS 3 Xrotation Zrotation Yrotation
		JOINT rShin
		{
			OFFSET 2.041588 -20.007561 0.000000 
			CHANNELS 3 Xrotation Zrotation Yrotation
			JOINT rFoot
			{
				OFFSET 0.000000 -19.190928 -1.224953 
				CHANNELS 3 Xrotation Yrotation Zrotation
				End Site
				{
					OFFSET 0.000000 -2.449906 4.627600 
				}
			}
		}
	}
}
MOTION
Frames: 13
Frame Time: 0.016667
2.494643 50.387886 -6.495581 2.429076 -5.915519 -57.577087 41.061451 3.960812 3.557560 3.930768 1.961861 2.833284 -6.798743 -1.728945 0.192441 2.813715 -7.432944 36.249573 -13.036548 -1.348394 -0.067128 -36.353992 -0.773593 -7.579975 -117.670006 5.000000 19.346651 -8.253768 -23.603617 2.069180 3.554029 -1.265306 0.067733 83.072937 69.077347 45.000000 109.912567 -5.000000 5.319625 28.585497 -1.870639 6.199728 -22.713171 31.315762 4.573060 31.145092 -8.213087 -5.486438 -0.467038 7.545757 -11.656832 -1.250435 -13.750204 -5.403624 35.590355 5.581230 4.397019 -23.283129 -18.548897 12.164526 
2.585737 50.280048 -6.400892 2.302299 -5.740506 -57.181400 41.111683 4.090192 3.567540 3.865407 1.981304 2.921134 -6.993773 -1.642043 0.179296 2.828318 -7.513999 35.980934 -13.095304 -1.475178 -0.073658 -36.177250 -0.999120 -7.472811 -117.081520 5.000000 18.914997 -7.986224 -23.569771 2.269873 3.495017 -1.031839 0.045891 82.998840 69.450912 45.000000 109.399597 -5.000000 5.294427 28.289339 -1.633498 6.407943 -23.171356 30.562754 3.827158 31.481813 -7.994655 -5.371117 -0.577936 8.178576 -11.379045 -1.591597 -14.133793 -5.615775 36.366062 5.472434 4.436457 -23.668926 -18.701220 12.288728 
2.676822 50.171021 -6.308309 2.164799 -5.566236 -56.748001 41.187653 4.186930 3.539096 3.790323 2.010514 2.999567 -7.228032 -1.515058 0.169960 2.838257 -7.586416 35.720715 -13.173592 -1.592210 -0.079685 -35.949482 -1.240313 -7.364332 -116.458389 5.000000 18.470835 -7.773216 -23.519602 2.474135 3.436225 -0.709993 0.029255 82.956734 69.827507 45.000000 108.860489 -5.000000 5.276029 27.939926 -1.362334 6.650205 -23.782776 29.816261 2.689903 31.827383 -7.763764 -5.292313 -0.378922 8.846007 -11.468292 -1.923781 -14.552899 -5.815968 37.187649 5.380682 4.485404 -24.035433 -18.850254 12.436096 
2.754162 50.060806 -6.221694 2.114772 -5.486856 -56.270512 41.243156 4.391150 3.581659 3.686661 2.098327 3.019096 -7.237657 -1.466780 0.162656 2.841841 -7.671189 35.500378 -13.339842 -1.748251 -0.087721 -35.679497 -1.348780 -7.266841 -115.669365 5.000000 17.899620 -7.471723 -23.498585 2.461321 3.611986 -0.436334 0.024888 82.442741 69.914063 45.000000 108.454796 -5.000000 5.300171 27.740997 -1.167567 6.876761 -24.605043 29.262644 1.284867 32.466026 -7.783941 -5.417772 -0.337848 9.774194 -11.378332 -2.138290 -14.816188 -6.171568 37.894123 5.253130 4.500207 -24.387157 -18.893858 12.575558 
2.810874 49.948814 -6.144043 2.179770 -5.531137 -55.722221 41.273121 4.712445 3.729128 3.514473 2.244775 2.950772 -6.954392 -1.535831 0.163229 2.805177 -7.799356 35.334854 -13.642953 -1.972561 -0.099607 -35.322765 -1.287107 -7.202354 -114.640678 5.000000 17.156420 -7.075418 -23.503546 2.138219 4.149038 -0.251034 0.015310 81.271049 69.533081 45.000000 108.235229 -5.000000 5.393523 27.764606 -1.108733 7.095683 -25.676868 29.036039 -0.475264 33.488960 -8.184055 -5.956073 -0.627844 10.910966 -11.126049 -2.217401 -14.863697 -6.641016 38.490143 5.072693 4.389564 -24.686934 -18.756523 12.740483 
2.867584 49.836830 -6.066390 2.251761 -5.580929 -55.164146 41.303398 5.039197 3.868152 3.351771 2.401002 2.863329 -6.661081 -1.606343 0.154149 2.786009 -7.920882 35.158566 -13.946128 -2.206624 -0.111698 -34.976315 -1.221905 -7.129423 -113.597145 5.000000 16.401592 -6.679137 -23.505632 1.815109 4.676356 -0.065735 0.005732 80.126610 69.154549 45.000000 108.027016 -5.000000 5.486132 27.787941 -1.054098 7.301635 -26.780882 28.763710 -2.256078 34.520485 -8.550892 -6.473221 -0.829634 12.129577 -10.885139 -2.265187 -14.922767 -7.156662 39.033215 4.902254 4.305060 -25.052948 -18.606983 12.890429 
2.873531 49.765167 -5.993211 2.113330 -5.586507 -55.165092 41.232822 4.891872 3.829088 3.244629 2.439736 3.185829 -6.260443 -1.509786 0.139542 3.041150 -8.025836 34.990711 -14.229591 -2.333407 -0.118246 -34.660637 -1.226760 -7.045578 -112.309021 5.000000 15.445590 -6.361512 -23.435890 1.690915 5.291592 0.100060 -0.002838 79.957024 68.419296 45.000000 107.728439 -5.000000 5.584876 27.817636 -1.039593 7.266553 -26.883808 28.563421 -1.467589 35.173378 -8.005110 -6.168925 -1.092100 11.229921 -10.732369 -2.353414 -15.176724 -7.133510 39.519367 4.862878 4.344420 -25.190351 -18.592978 13.099332 
2.879466 49.693520 -5.920033 1.982006 -5.599019 -55.156422 41.172703 4.752575 3.795283 3.137369 2.468669 3.518093 -5.869357 -1.414690 0.115281 3.308015 -8.132040 34.813358 -14.503304 -2.460191 -0.124794 -34.334988 -1.233849 -6.948835 -111.009422 5.000000 14.488561 -6.059331 -23.373920 1.581268 5.897091 0.275607 -0.011912 79.818222 67.666496 45.000000 107.439484 -5.000000 5.674401 27.845928 -1.042748 7.244205 -26.976351 28.343826 -0.688671 35.858543 -7.482151 -5.906881 -1.334195 10.335924 -10.603543 -2.422214 -15.424973 -7.098648 39.985519 4.827584 4.374269 -25.406487 -18.564522 13.262278 
2.871076 49.647861 -5.847752 1.864917 -5.651846 -55.104420 41.119213 4.688967 3.810657 3.081738 2.409901 3.723051 -5.742205 -1.308477 0.099211 3.560356 -8.166627 34.707535 -14.601579 -2.545503 -0.138767 -34.133343 -1.355241 -6.853506 -109.905403 5.000000 13.685472 -5.938298 -23.281942 1.795498 6.238926 0.402391 -0.018465 80.436531 67.065269 45.000000 107.043343 -5.000000 5.676610 27.840595 -1.015561 7.026682 -27.088669 28.211723 -0.603874 36.348160 -7.373861 -5.900585 -1.472689 10.248588 -10.440573 -2.304509 -15.639405 -7.168825 40.197803 4.846420 4.467703 -25.530294 -18.539127 13.364802 
2.853135 49.619530 -5.776069 1.765522 -5.736904 -55.027523 41.060936 4.678600 3.860450 3.051373 2.302424 3.849921 -5.800801 -1.181492 0.089873 3.800398 -8.148257 34.645657 -14.582194 -2.604022 -0.141789 -34.001392 -1.553445 -6.735070 -108.937805 5.000000 12.987180 -5.963965 -23.178900 2.243757 6.395216 0.499917 -0.023506 81.524368 66.555733 45.000000 106.573807 -5.000000 5.612840 27.812738 -0.974341 6.682951 -27.153942 28.120998 -0.915126 36.739174 -7.510603 -6.131854 -1.598213 10.646862 -10.244033 -2.119604 -15.786599 -7.206402 40.298599 4.925095 4.493945 -25.624525 -18.581652 13.348093 
2.831011 49.602253 -5.706182 1.659998 -5.830631 -54.892128 41.012985 4.700549 3.906239 3.020442 2.214518 3.947521 -5.878999 -1.102785 0.087840 3.987350 -8.144027 34.605789 -14.553096 -2.682047 -0.145819 -33.912277 -1.724587 -6.638042 -108.045975 5.000000 12.337681 -5.968573 -23.101456 2.645802 6.532071 0.576827 -0.037240 82.498444 66.080109 45.000000 106.125015 -5.000000 5.524680 27.784565 -0.979511 6.447528 -27.187811 28.047094 -1.234288 37.078403 -7.669063 -6.306190 -1.740744 10.988439 -10.056797 -1.835970 -15.926848 -7.362485 40.282433 4.967875 4.565088 -25.710003 -18.617657 13.346796 
2.792170 49.629177 -5.643481 1.558233 -5.972851 -54.585953 40.981010 4.777170 3.961195 2.982052 2.263365 3.888963 -6.025577 -1.160719 0.096605 3.975977 -8.216363 34.612728 -14.533955 -2.828339 -0.153371 -33.980801 -1.811131 -6.594418 -107.498222 5.000000 11.919119 -5.844704 -23.150406 2.762117 6.590651 0.557312 -0.036231 83.145660 65.825020 45.000000 105.785042 -5.000000 5.371215 27.719332 -1.227562 6.701306 -27.059877 27.899742 -1.404327 37.060184 -7.706894 -6.364194 -1.742368 10.997251 -9.926828 -1.309026 -15.977525 -7.720256 39.980469 5.035491 4.550988 -25.587004 -18.574434 13.460169 
2.753323 49.656101 -5.580781 1.446183 -6.112093 -54.269581 40.958355 4.854586 4.019257 2.952538 2.302475 3.820647 -6.162415 -1.228309 0.106831 3.974353 -8.288694 34.621128 -14.505092 -2.984385 -0.161426 -34.048615 -1.903037 -6.558636 -106.940392 5.000000 11.496575 -5.724740 -23.189432 2.890045 6.639472 0.547551 -0.035726 83.774101 65.566154 45.000000 105.435402 -5.000000 5.216057 27.663345 -1.463103 6.951256 -26.932770 27.753122 -1.589104 37.033566 -7.735519 -6.419354 -1.747585 11.046865 -9.791532 -0.782028 -16.029064 -8.118526 39.690067 5.074584 4.557794 -25.477505 -18.582336 13.541113 
